<svg xmlns="http://www.w3.org/2000/svg" width="14" height="16" viewBox="0 0 14 16">
  <g id="personal-trainer" transform="translate(-1)">
    <circle id="Ellipse_3" data-name="Ellipse 3" cx="2.5" cy="2.5" r="2.5" transform="translate(5.5)" fill="#fff"/>
    <path id="Path_88" data-name="Path 88" d="M14.651,9.241l-3.5-3A1,1,0,0,0,10.5,6h-5a1,1,0,0,0-.651.241l-3.5,3a1,1,0,0,0-.056,1.466L4,13.414V10.586l-.529-.529L5,8.746V15a1,1,0,0,0,1,1h4a1,1,0,0,0,1-1V8.746l1.529,1.311L12,10.586v2.828l2.707-2.707a1,1,0,0,0-.056-1.466Z" fill="#fff"/>
  </g>
</svg>
